# xmcd
#
# Track frame offsets:
#	150
#	12687
#	22855
#	31377
#	45702
#	57590
#	70432
#	83365
#	95885
#	110252
#	119697
#	128192
#	140387
#	152972
#	163690
#	176782
#	189287
#	200997
#	214440
#	226770
#	240092
#	250622
#	262105
#	271085
#	281455
#	288970
#
# Disc length: 4011 seconds
#
# Revision: 1
# Processed by: cddbd v1.5.2PL0 Copyright (c) Steve Scherf et al.
# Submitted via: audiograbber 1.83.01
#
DISCID=7d0fa91a
DTITLE=Various Artist - Ultimate Memphis Country Collection Vol. 2 CD 2
DYEAR=1900
DGENRE=Country
TTITLE0=Sonny Burgess - So Soon
TTITLE1=Johnny Cash - The Ways Of A Woman In Love
TTITLE2=Jerry Lee Lewis - I Love You Because
TTITLE3=Charlie Rich - I've Lost My Heart To You
TTITLE4=Gene Simmons - Chains Of Love
TTITLE5=Carl Perkins - What'cha Doin' When You're Cryin'
TTITLE6=Eddie Bond - Just A Closer Walk With Thee
TTITLE7=Hardrock Gunter - Fallen Angel
TTITLE8=Warren Smith - Black Jack David
TTITLE9=Ernie Chaffin - Laughin' And Jokin'
TTITLE10=Carl Mann - Crazy Fool
TTITLE11=Dane Stinit - Ghost Of Mary Lou
TTITLE12=Cast King - Please Believe Me
TTITLE13=Jack Clement - Your Lover Boy
TTITLE14=Maggie Sue Wimberly - Daydreams Do Come True
TTITLE15=Johnny Cash - Give My Love To Rose
TTITLE16=Slim Rhodes - Are You Ashamed Of Me
TTITLE17=Jerry Lee Lewis - Ballad Of Billy Joe
TTITLE18=Eddie Bond - Will I Be Lost Or Will I Be Saved
TTITLE19=Charlie Feathers - Wedding Gown Of White
TTITLE20=Ernie Chaffin - Please Don't Ever Leave Me
TTITLE21=Sonny Burgess - One Broken Heart
TTITLE22=Warren Smith - The Darkest Cloud
TTITLE23=Slim Rhodes - Don't Believe
TTITLE24=Eddie Bond - Double Duty Lovin'
TTITLE25=Carl Perkins - You Can't Make Love To Somebody
EXTD=
EXTT0=
EXTT1=
EXTT2=
EXTT3=
EXTT4=
EXTT5=
EXTT6=
EXTT7=
EXTT8=
EXTT9=
EXTT10=
EXTT11=
EXTT12=
EXTT13=
EXTT14=
EXTT15=
EXTT16=
EXTT17=
EXTT18=
EXTT19=
EXTT20=
EXTT21=
EXTT22=
EXTT23=
EXTT24=
EXTT25=
PLAYORDER=
